<svg width="48" height="48" viewBox="0 0 48 48" fill="none" xmlns="http://www.w3.org/2000/svg">
<path d="M0 9C0 4.02944 4.02944 0 9 0H39C43.9706 0 48 4.02944 48 9V39C48 43.9706 43.9706 48 39 48H9C4.02944 48 0 43.9706 0 39V9Z" fill="#1CD1F6"/>
<g clip-path="url(#clip0_1870_10871)">
<path d="M24.541 27.5874L29.5079 30.5066L37.0152 26.1841V32.251L24.541 39V27.5874Z" fill="black"/>
<path d="M25.1855 26.8293L37.546 19.966L41.9444 22.3549L29.3943 29.4451L25.1855 26.8293Z" fill="black"/>
<path d="M23.4029 27.5874L18.436 30.5066L10.9287 26.1841V32.251L23.4029 39V27.5874Z" fill="black"/>
<path d="M22.7589 26.8293L10.3984 19.966L6 22.3549L18.5502 29.4451L22.7589 26.8293Z" fill="black"/>
<path d="M11.5742 19.3214L24.0484 26.1842L36.5226 19.3214C36.5226 19.3214 35.0439 16.5154 32.0487 17.1605C32.0487 17.1605 31.5939 12.1936 25.9825 13.5209C25.9825 13.5209 24.0107 9.38816 19.1575 10.7909C14.3042 12.1936 15.5555 17.0468 15.5555 17.0468C15.5555 17.0468 12.8255 16.5537 11.5742 19.322V19.3214Z" fill="black"/>
</g>
<defs>
<clipPath id="clip0_1870_10871">
<rect width="35.9444" height="28.5" fill="white" transform="translate(6 10.5)"/>
</clipPath>
</defs>
</svg>
